G04 #@! TF.FileFunction,Copper,L1,Top,Signal*
%FSLAX46Y46*%
G04 Gerber Fmt 4.6, Leading zero omitted, Abs format (unit mm)*
G04 Created by KiCad (PCBNEW 4.0.3+e1-6302~38~ubuntu16.04.1-stable) date Mon Aug 15 18:15:02 2016*
%MOMM*%
%LPD*%
G01*
G04 APERTURE LIST*
%ADD10C,0.150000*%
%ADD11C,0.300000*%
%ADD12R,2.999740X1.600200*%
%ADD13C,1.905000*%
%ADD14R,1.524000X2.032000*%
%ADD15R,2.032000X1.524000*%
%ADD16C,1.524000*%
%ADD17R,1.143000X0.508000*%
%ADD18R,1.524000X1.524000*%
%ADD19C,0.889000*%
%ADD20C,0.254000*%
G04 APERTURE END LIST*
D10*
D11*
X22209452Y-64817762D02*
X23352309Y-64817762D01*
X22780881Y-66817762D02*
X22780881Y-64817762D01*
X24399929Y-64817762D02*
X24780881Y-64817762D01*
X24971357Y-64913000D01*
X25161834Y-65103476D01*
X25257072Y-65484429D01*
X25257072Y-66151095D01*
X25161834Y-66532048D01*
X24971357Y-66722524D01*
X24780881Y-66817762D01*
X24399929Y-66817762D01*
X24209453Y-66722524D01*
X24018976Y-66532048D01*
X23923738Y-66151095D01*
X23923738Y-65484429D01*
X24018976Y-65103476D01*
X24209453Y-64913000D01*
X24399929Y-64817762D01*
X26114214Y-66817762D02*
X26114214Y-64817762D01*
X26876119Y-64817762D01*
X27066595Y-64913000D01*
X27161834Y-65008238D01*
X27257072Y-65198714D01*
X27257072Y-65484429D01*
X27161834Y-65674905D01*
X27066595Y-65770143D01*
X26876119Y-65865381D01*
X26114214Y-65865381D01*
X22209452Y-88947762D02*
X23352309Y-88947762D01*
X22780881Y-90947762D02*
X22780881Y-88947762D01*
X24399929Y-88947762D02*
X24780881Y-88947762D01*
X24971357Y-89043000D01*
X25161834Y-89233476D01*
X25257072Y-89614429D01*
X25257072Y-90281095D01*
X25161834Y-90662048D01*
X24971357Y-90852524D01*
X24780881Y-90947762D01*
X24399929Y-90947762D01*
X24209453Y-90852524D01*
X24018976Y-90662048D01*
X23923738Y-90281095D01*
X23923738Y-89614429D01*
X24018976Y-89233476D01*
X24209453Y-89043000D01*
X24399929Y-88947762D01*
X26114214Y-90947762D02*
X26114214Y-88947762D01*
X26876119Y-88947762D01*
X27066595Y-89043000D01*
X27161834Y-89138238D01*
X27257072Y-89328714D01*
X27257072Y-89614429D01*
X27161834Y-89804905D01*
X27066595Y-89900143D01*
X26876119Y-89995381D01*
X26114214Y-89995381D01*
X22209452Y-40687762D02*
X23352309Y-40687762D01*
X22780881Y-42687762D02*
X22780881Y-40687762D01*
X24399929Y-40687762D02*
X24780881Y-40687762D01*
X24971357Y-40783000D01*
X25161834Y-40973476D01*
X25257072Y-41354429D01*
X25257072Y-42021095D01*
X25161834Y-42402048D01*
X24971357Y-42592524D01*
X24780881Y-42687762D01*
X24399929Y-42687762D01*
X24209453Y-42592524D01*
X24018976Y-42402048D01*
X23923738Y-42021095D01*
X23923738Y-41354429D01*
X24018976Y-40973476D01*
X24209453Y-40783000D01*
X24399929Y-40687762D01*
X26114214Y-42687762D02*
X26114214Y-40687762D01*
X26876119Y-40687762D01*
X27066595Y-40783000D01*
X27161834Y-40878238D01*
X27257072Y-41068714D01*
X27257072Y-41354429D01*
X27161834Y-41544905D01*
X27066595Y-41640143D01*
X26876119Y-41735381D01*
X26114214Y-41735381D01*
D12*
X55902860Y-49720500D03*
X60302140Y-49720500D03*
D13*
X55245000Y-57785000D03*
X23495000Y-56515000D03*
X55245000Y-55245000D03*
D14*
X65786000Y-66040000D03*
X62484000Y-66040000D03*
D15*
X55245000Y-62484000D03*
X55245000Y-65786000D03*
D16*
X57150000Y-45720000D03*
X77470000Y-45720000D03*
D17*
X67437000Y-62865000D03*
X67437000Y-61595000D03*
X67437000Y-60325000D03*
X67437000Y-59055000D03*
X67437000Y-57785000D03*
X67437000Y-56515000D03*
X67437000Y-55245000D03*
X61087000Y-55245000D03*
X61087000Y-56515000D03*
X61087000Y-59055000D03*
X61087000Y-60325000D03*
X61087000Y-61595000D03*
X61087000Y-62865000D03*
X61087000Y-57785000D03*
D18*
X72390000Y-51435000D03*
D16*
X72390000Y-48895000D03*
X74930000Y-51435000D03*
X74930000Y-48895000D03*
X77470000Y-51435000D03*
X77470000Y-48895000D03*
D18*
X78105000Y-66040000D03*
D16*
X75565000Y-66040000D03*
X78105000Y-63500000D03*
X75565000Y-63500000D03*
X78105000Y-60960000D03*
X75565000Y-60960000D03*
X78105000Y-58420000D03*
X75565000Y-58420000D03*
D12*
X55902860Y-73850500D03*
X60302140Y-73850500D03*
D13*
X55245000Y-81915000D03*
X23495000Y-80645000D03*
X55245000Y-79375000D03*
D14*
X65786000Y-90170000D03*
X62484000Y-90170000D03*
D15*
X55245000Y-86614000D03*
X55245000Y-89916000D03*
D16*
X57150000Y-69850000D03*
X77470000Y-69850000D03*
D17*
X67437000Y-86995000D03*
X67437000Y-85725000D03*
X67437000Y-84455000D03*
X67437000Y-83185000D03*
X67437000Y-81915000D03*
X67437000Y-80645000D03*
X67437000Y-79375000D03*
X61087000Y-79375000D03*
X61087000Y-80645000D03*
X61087000Y-83185000D03*
X61087000Y-84455000D03*
X61087000Y-85725000D03*
X61087000Y-86995000D03*
X61087000Y-81915000D03*
D18*
X72390000Y-75565000D03*
D16*
X72390000Y-73025000D03*
X74930000Y-75565000D03*
X74930000Y-73025000D03*
X77470000Y-75565000D03*
X77470000Y-73025000D03*
D18*
X78105000Y-90170000D03*
D16*
X75565000Y-90170000D03*
X78105000Y-87630000D03*
X75565000Y-87630000D03*
X78105000Y-85090000D03*
X75565000Y-85090000D03*
X78105000Y-82550000D03*
X75565000Y-82550000D03*
D18*
X78105000Y-41910000D03*
D16*
X75565000Y-41910000D03*
X78105000Y-39370000D03*
X75565000Y-39370000D03*
X78105000Y-36830000D03*
X75565000Y-36830000D03*
X78105000Y-34290000D03*
X75565000Y-34290000D03*
D18*
X72390000Y-27305000D03*
D16*
X72390000Y-24765000D03*
X74930000Y-27305000D03*
X74930000Y-24765000D03*
X77470000Y-27305000D03*
X77470000Y-24765000D03*
D17*
X67437000Y-38735000D03*
X67437000Y-37465000D03*
X67437000Y-36195000D03*
X67437000Y-34925000D03*
X67437000Y-33655000D03*
X67437000Y-32385000D03*
X67437000Y-31115000D03*
X61087000Y-31115000D03*
X61087000Y-32385000D03*
X61087000Y-34925000D03*
X61087000Y-36195000D03*
X61087000Y-37465000D03*
X61087000Y-38735000D03*
X61087000Y-33655000D03*
D16*
X57150000Y-21590000D03*
X77470000Y-21590000D03*
D15*
X55245000Y-38354000D03*
X55245000Y-41656000D03*
D14*
X65786000Y-41910000D03*
X62484000Y-41910000D03*
D13*
X55245000Y-33655000D03*
X23495000Y-32385000D03*
X55245000Y-31115000D03*
D12*
X55902860Y-25590500D03*
X60302140Y-25590500D03*
D19*
X65405000Y-62230000D03*
X65405000Y-86360000D03*
X65405000Y-38100000D03*
X63881000Y-50165000D03*
X53086000Y-63627000D03*
X63881000Y-74295000D03*
X53086000Y-87757000D03*
X53086000Y-39497000D03*
X63881000Y-26035000D03*
X70739000Y-60388500D03*
X70739000Y-84518500D03*
X70739000Y-36258500D03*
X59690000Y-53340000D03*
X59690000Y-77470000D03*
X59690000Y-29210000D03*
X62230000Y-51879500D03*
X62230000Y-76009500D03*
X62230000Y-27749500D03*
X70612000Y-56324500D03*
X70612000Y-80454500D03*
X70612000Y-32194500D03*
X65405000Y-57150000D03*
X65405000Y-81280000D03*
X65405000Y-33020000D03*
X58166000Y-56261000D03*
X58166000Y-80391000D03*
X58166000Y-32131000D03*
D20*
X65786000Y-63119000D02*
X66040000Y-62865000D01*
X65786000Y-66040000D02*
X65786000Y-63119000D01*
X66040000Y-62865000D02*
X65405000Y-62230000D01*
X67437000Y-62865000D02*
X66040000Y-62865000D01*
X64770000Y-45720000D02*
X57150000Y-45720000D01*
X67945000Y-48895000D02*
X64770000Y-45720000D01*
X72390000Y-48895000D02*
X67945000Y-48895000D01*
X55245000Y-47625000D02*
X57150000Y-45720000D01*
X55245000Y-55245000D02*
X55245000Y-47625000D01*
X65786000Y-66040000D02*
X75565000Y-66040000D01*
X55245000Y-49062640D02*
X55902860Y-49720500D01*
X55245000Y-47625000D02*
X55245000Y-49062640D01*
X65786000Y-87249000D02*
X66040000Y-86995000D01*
X65786000Y-90170000D02*
X65786000Y-87249000D01*
X66040000Y-86995000D02*
X65405000Y-86360000D01*
X67437000Y-86995000D02*
X66040000Y-86995000D01*
X64770000Y-69850000D02*
X57150000Y-69850000D01*
X67945000Y-73025000D02*
X64770000Y-69850000D01*
X72390000Y-73025000D02*
X67945000Y-73025000D01*
X55245000Y-71755000D02*
X57150000Y-69850000D01*
X55245000Y-79375000D02*
X55245000Y-71755000D01*
X65786000Y-90170000D02*
X75565000Y-90170000D01*
X55245000Y-73192640D02*
X55902860Y-73850500D01*
X55245000Y-71755000D02*
X55245000Y-73192640D01*
X55245000Y-23495000D02*
X55245000Y-24932640D01*
X55245000Y-24932640D02*
X55902860Y-25590500D01*
X65786000Y-41910000D02*
X75565000Y-41910000D01*
X55245000Y-31115000D02*
X55245000Y-23495000D01*
X55245000Y-23495000D02*
X57150000Y-21590000D01*
X72390000Y-24765000D02*
X67945000Y-24765000D01*
X67945000Y-24765000D02*
X64770000Y-21590000D01*
X64770000Y-21590000D02*
X57150000Y-21590000D01*
X67437000Y-38735000D02*
X66040000Y-38735000D01*
X66040000Y-38735000D02*
X65405000Y-38100000D01*
X65786000Y-41910000D02*
X65786000Y-38989000D01*
X65786000Y-38989000D02*
X66040000Y-38735000D01*
X55499000Y-66040000D02*
X55245000Y-65786000D01*
X62484000Y-66040000D02*
X60579000Y-66040000D01*
X55245000Y-65786000D02*
X53086000Y-63627000D01*
X62230000Y-63500000D02*
X61595000Y-62865000D01*
X62484000Y-63754000D02*
X62230000Y-63500000D01*
X62484000Y-66040000D02*
X62484000Y-63754000D01*
X61087000Y-62865000D02*
X61595000Y-62865000D01*
X62230000Y-53340000D02*
X63881000Y-51689000D01*
X63881000Y-51689000D02*
X63881000Y-50165000D01*
X61595000Y-62865000D02*
X62230000Y-62230000D01*
X62230000Y-62230000D02*
X62230000Y-53340000D01*
X55499000Y-66040000D02*
X55245000Y-65786000D01*
X60579000Y-66040000D02*
X55499000Y-66040000D01*
X77597000Y-67818000D02*
X64262000Y-67818000D01*
X64262000Y-67818000D02*
X62484000Y-66040000D01*
X78105000Y-66040000D02*
X78105000Y-67310000D01*
X78105000Y-67310000D02*
X77724000Y-67691000D01*
X77724000Y-67691000D02*
X77597000Y-67818000D01*
X63373000Y-50165000D02*
X63881000Y-50165000D01*
X63373000Y-50165000D02*
X62928500Y-49720500D01*
X60302140Y-49720500D02*
X62928500Y-49720500D01*
X55499000Y-90170000D02*
X55245000Y-89916000D01*
X62484000Y-90170000D02*
X60579000Y-90170000D01*
X55245000Y-89916000D02*
X53086000Y-87757000D01*
X62230000Y-87630000D02*
X61595000Y-86995000D01*
X62484000Y-87884000D02*
X62230000Y-87630000D01*
X62484000Y-90170000D02*
X62484000Y-87884000D01*
X61087000Y-86995000D02*
X61595000Y-86995000D01*
X62230000Y-77470000D02*
X63881000Y-75819000D01*
X63881000Y-75819000D02*
X63881000Y-74295000D01*
X61595000Y-86995000D02*
X62230000Y-86360000D01*
X62230000Y-86360000D02*
X62230000Y-77470000D01*
X55499000Y-90170000D02*
X55245000Y-89916000D01*
X60579000Y-90170000D02*
X55499000Y-90170000D01*
X77597000Y-91948000D02*
X64262000Y-91948000D01*
X64262000Y-91948000D02*
X62484000Y-90170000D01*
X78105000Y-90170000D02*
X78105000Y-91440000D01*
X78105000Y-91440000D02*
X77724000Y-91821000D01*
X77724000Y-91821000D02*
X77597000Y-91948000D01*
X63373000Y-74295000D02*
X63881000Y-74295000D01*
X63373000Y-74295000D02*
X62928500Y-73850500D01*
X60302140Y-73850500D02*
X62928500Y-73850500D01*
X60302140Y-25590500D02*
X62928500Y-25590500D01*
X63373000Y-26035000D02*
X62928500Y-25590500D01*
X63373000Y-26035000D02*
X63881000Y-26035000D01*
X77724000Y-43561000D02*
X77597000Y-43688000D01*
X78105000Y-43180000D02*
X77724000Y-43561000D01*
X78105000Y-41910000D02*
X78105000Y-43180000D01*
X64262000Y-43688000D02*
X62484000Y-41910000D01*
X77597000Y-43688000D02*
X64262000Y-43688000D01*
X60579000Y-41910000D02*
X55499000Y-41910000D01*
X55499000Y-41910000D02*
X55245000Y-41656000D01*
X62230000Y-38100000D02*
X62230000Y-29210000D01*
X61595000Y-38735000D02*
X62230000Y-38100000D01*
X63881000Y-27559000D02*
X63881000Y-26035000D01*
X62230000Y-29210000D02*
X63881000Y-27559000D01*
X61087000Y-38735000D02*
X61595000Y-38735000D01*
X62484000Y-41910000D02*
X62484000Y-39624000D01*
X62484000Y-39624000D02*
X62230000Y-39370000D01*
X62230000Y-39370000D02*
X61595000Y-38735000D01*
X55245000Y-41656000D02*
X53086000Y-39497000D01*
X62484000Y-41910000D02*
X60579000Y-41910000D01*
X55499000Y-41910000D02*
X55245000Y-41656000D01*
X68135500Y-57785000D02*
X67437000Y-57785000D01*
X68135500Y-57785000D02*
X70739000Y-60388500D01*
X68135500Y-81915000D02*
X67437000Y-81915000D01*
X68135500Y-81915000D02*
X70739000Y-84518500D01*
X68135500Y-33655000D02*
X70739000Y-36258500D01*
X68135500Y-33655000D02*
X67437000Y-33655000D01*
X67437000Y-56515000D02*
X67818000Y-56515000D01*
X68580000Y-56515000D02*
X75565000Y-63500000D01*
X67437000Y-56515000D02*
X68580000Y-56515000D01*
X67437000Y-80645000D02*
X67818000Y-80645000D01*
X68580000Y-80645000D02*
X75565000Y-87630000D01*
X67437000Y-80645000D02*
X68580000Y-80645000D01*
X67437000Y-32385000D02*
X68580000Y-32385000D01*
X68580000Y-32385000D02*
X75565000Y-39370000D01*
X67437000Y-32385000D02*
X67818000Y-32385000D01*
X78105000Y-60960000D02*
X77978000Y-60960000D01*
X59690000Y-53340000D02*
X59690000Y-55880000D01*
X59690000Y-55880000D02*
X60325000Y-56515000D01*
X61087000Y-56515000D02*
X60325000Y-56515000D01*
X78105000Y-60960000D02*
X77470000Y-60960000D01*
X76835000Y-53340000D02*
X76835000Y-60325000D01*
X76835000Y-60325000D02*
X77470000Y-60960000D01*
X74930000Y-51435000D02*
X76835000Y-53340000D01*
X78105000Y-85090000D02*
X77978000Y-85090000D01*
X59690000Y-77470000D02*
X59690000Y-80010000D01*
X59690000Y-80010000D02*
X60325000Y-80645000D01*
X61087000Y-80645000D02*
X60325000Y-80645000D01*
X78105000Y-85090000D02*
X77470000Y-85090000D01*
X76835000Y-77470000D02*
X76835000Y-84455000D01*
X76835000Y-84455000D02*
X77470000Y-85090000D01*
X74930000Y-75565000D02*
X76835000Y-77470000D01*
X74930000Y-27305000D02*
X76835000Y-29210000D01*
X76835000Y-36195000D02*
X77470000Y-36830000D01*
X76835000Y-29210000D02*
X76835000Y-36195000D01*
X78105000Y-36830000D02*
X77470000Y-36830000D01*
X61087000Y-32385000D02*
X60325000Y-32385000D01*
X59690000Y-31750000D02*
X60325000Y-32385000D01*
X59690000Y-29210000D02*
X59690000Y-31750000D01*
X78105000Y-36830000D02*
X77978000Y-36830000D01*
X72390000Y-58674000D02*
X74676000Y-60960000D01*
X74676000Y-60960000D02*
X75565000Y-60960000D01*
X72390000Y-51435000D02*
X72390000Y-58674000D01*
X61087000Y-53022500D02*
X62230000Y-51879500D01*
X61087000Y-55245000D02*
X61087000Y-53022500D01*
X72390000Y-82804000D02*
X74676000Y-85090000D01*
X74676000Y-85090000D02*
X75565000Y-85090000D01*
X72390000Y-75565000D02*
X72390000Y-82804000D01*
X61087000Y-77152500D02*
X62230000Y-76009500D01*
X61087000Y-79375000D02*
X61087000Y-77152500D01*
X61087000Y-31115000D02*
X61087000Y-28892500D01*
X61087000Y-28892500D02*
X62230000Y-27749500D01*
X72390000Y-27305000D02*
X72390000Y-34544000D01*
X74676000Y-36830000D02*
X75565000Y-36830000D01*
X72390000Y-34544000D02*
X74676000Y-36830000D01*
X67437000Y-55245000D02*
X67945000Y-55245000D01*
X74930000Y-48895000D02*
X74930000Y-48133000D01*
X79121000Y-55753000D02*
X78232000Y-56642000D01*
X75692000Y-47371000D02*
X74930000Y-48133000D01*
X75692000Y-47371000D02*
X78613000Y-47371000D01*
X78613000Y-47371000D02*
X79121000Y-47879000D01*
X79121000Y-47879000D02*
X79121000Y-55753000D01*
X78105000Y-56769000D02*
X78232000Y-56642000D01*
X78105000Y-58420000D02*
X78105000Y-56769000D01*
X69532500Y-55245000D02*
X70612000Y-56324500D01*
X67437000Y-55245000D02*
X69532500Y-55245000D01*
X67437000Y-79375000D02*
X67945000Y-79375000D01*
X74930000Y-73025000D02*
X74930000Y-72263000D01*
X79121000Y-79883000D02*
X78232000Y-80772000D01*
X75692000Y-71501000D02*
X74930000Y-72263000D01*
X75692000Y-71501000D02*
X78613000Y-71501000D01*
X78613000Y-71501000D02*
X79121000Y-72009000D01*
X79121000Y-72009000D02*
X79121000Y-79883000D01*
X78105000Y-80899000D02*
X78232000Y-80772000D01*
X78105000Y-82550000D02*
X78105000Y-80899000D01*
X69532500Y-79375000D02*
X70612000Y-80454500D01*
X67437000Y-79375000D02*
X69532500Y-79375000D01*
X67437000Y-31115000D02*
X69532500Y-31115000D01*
X69532500Y-31115000D02*
X70612000Y-32194500D01*
X78105000Y-34290000D02*
X78105000Y-32639000D01*
X78105000Y-32639000D02*
X78232000Y-32512000D01*
X79121000Y-23749000D02*
X79121000Y-31623000D01*
X78613000Y-23241000D02*
X79121000Y-23749000D01*
X75692000Y-23241000D02*
X78613000Y-23241000D01*
X75692000Y-23241000D02*
X74930000Y-24003000D01*
X79121000Y-31623000D02*
X78232000Y-32512000D01*
X74930000Y-24765000D02*
X74930000Y-24003000D01*
X67437000Y-31115000D02*
X67945000Y-31115000D01*
X67437000Y-59055000D02*
X66040000Y-59055000D01*
X65405000Y-58420000D02*
X65405000Y-57150000D01*
X66040000Y-59055000D02*
X65405000Y-58420000D01*
X67437000Y-83185000D02*
X66040000Y-83185000D01*
X65405000Y-82550000D02*
X65405000Y-81280000D01*
X66040000Y-83185000D02*
X65405000Y-82550000D01*
X66040000Y-34925000D02*
X65405000Y-34290000D01*
X65405000Y-34290000D02*
X65405000Y-33020000D01*
X67437000Y-34925000D02*
X66040000Y-34925000D01*
X59944000Y-57785000D02*
X55245000Y-62484000D01*
X61087000Y-57785000D02*
X59944000Y-57785000D01*
X58166000Y-56261000D02*
X59690000Y-57785000D01*
X59690000Y-57785000D02*
X61087000Y-57785000D01*
X59944000Y-81915000D02*
X55245000Y-86614000D01*
X61087000Y-81915000D02*
X59944000Y-81915000D01*
X58166000Y-80391000D02*
X59690000Y-81915000D01*
X59690000Y-81915000D02*
X61087000Y-81915000D01*
X59690000Y-33655000D02*
X61087000Y-33655000D01*
X58166000Y-32131000D02*
X59690000Y-33655000D01*
X61087000Y-33655000D02*
X59944000Y-33655000D01*
X59944000Y-33655000D02*
X55245000Y-38354000D01*
M02*
