G04 #@! TF.FileFunction,Legend,Top*
%FSLAX46Y46*%
G04 Gerber Fmt 4.6, Leading zero omitted, Abs format (unit mm)*
G04 Created by KiCad (PCBNEW 4.0.3+e1-6302~38~ubuntu16.04.1-stable) date Mon Aug 15 18:15:02 2016*
%MOMM*%
%LPD*%
G01*
G04 APERTURE LIST*
%ADD10C,0.150000*%
%ADD11C,0.200000*%
%ADD12C,0.203200*%
%ADD13C,0.127000*%
%ADD14C,0.300000*%
%ADD15C,0.304800*%
G04 APERTURE END LIST*
D10*
D11*
X51435000Y-68580000D02*
X79375000Y-68580000D01*
X79375000Y-68580000D02*
X79375000Y-53340000D01*
X79375000Y-53340000D02*
X51435000Y-53340000D01*
X51435000Y-53340000D02*
X51435000Y-68580000D01*
D12*
X71295382Y-54455786D02*
X71295382Y-55133119D01*
X71295382Y-54552548D02*
X71343763Y-54504167D01*
X71440525Y-54455786D01*
X71585667Y-54455786D01*
X71682429Y-54504167D01*
X71730810Y-54600929D01*
X71730810Y-55133119D01*
X72795191Y-55133119D02*
X72456525Y-54649310D01*
X72214620Y-55133119D02*
X72214620Y-54117119D01*
X72601667Y-54117119D01*
X72698429Y-54165500D01*
X72746810Y-54213881D01*
X72795191Y-54310643D01*
X72795191Y-54455786D01*
X72746810Y-54552548D01*
X72698429Y-54600929D01*
X72601667Y-54649310D01*
X72214620Y-54649310D01*
X73569286Y-54600929D02*
X73230620Y-54600929D01*
X73230620Y-55133119D02*
X73230620Y-54117119D01*
X73714429Y-54117119D01*
X74053096Y-54213881D02*
X74101477Y-54165500D01*
X74198239Y-54117119D01*
X74440143Y-54117119D01*
X74536905Y-54165500D01*
X74585286Y-54213881D01*
X74633667Y-54310643D01*
X74633667Y-54407405D01*
X74585286Y-54552548D01*
X74004715Y-55133119D01*
X74633667Y-55133119D01*
X75504524Y-54455786D02*
X75504524Y-55133119D01*
X75262620Y-54068738D02*
X75020715Y-54794452D01*
X75649667Y-54794452D01*
X76520524Y-55133119D02*
X76036715Y-55133119D01*
X76036715Y-54117119D01*
X77052715Y-54117119D02*
X77149476Y-54117119D01*
X77246238Y-54165500D01*
X77294619Y-54213881D01*
X77343000Y-54310643D01*
X77391381Y-54504167D01*
X77391381Y-54746071D01*
X77343000Y-54939595D01*
X77294619Y-55036357D01*
X77246238Y-55084738D01*
X77149476Y-55133119D01*
X77052715Y-55133119D01*
X76955953Y-55084738D01*
X76907572Y-55036357D01*
X76859191Y-54939595D01*
X76810810Y-54746071D01*
X76810810Y-54504167D01*
X76859191Y-54310643D01*
X76907572Y-54213881D01*
X76955953Y-54165500D01*
X77052715Y-54117119D01*
X78359000Y-55133119D02*
X77778429Y-55133119D01*
X78068715Y-55133119D02*
X78068715Y-54117119D01*
X77971953Y-54262262D01*
X77875191Y-54359024D01*
X77778429Y-54407405D01*
D11*
X51435000Y-92710000D02*
X79375000Y-92710000D01*
X79375000Y-92710000D02*
X79375000Y-77470000D01*
X79375000Y-77470000D02*
X51435000Y-77470000D01*
X51435000Y-77470000D02*
X51435000Y-92710000D01*
D12*
X71295382Y-78585786D02*
X71295382Y-79263119D01*
X71295382Y-78682548D02*
X71343763Y-78634167D01*
X71440525Y-78585786D01*
X71585667Y-78585786D01*
X71682429Y-78634167D01*
X71730810Y-78730929D01*
X71730810Y-79263119D01*
X72795191Y-79263119D02*
X72456525Y-78779310D01*
X72214620Y-79263119D02*
X72214620Y-78247119D01*
X72601667Y-78247119D01*
X72698429Y-78295500D01*
X72746810Y-78343881D01*
X72795191Y-78440643D01*
X72795191Y-78585786D01*
X72746810Y-78682548D01*
X72698429Y-78730929D01*
X72601667Y-78779310D01*
X72214620Y-78779310D01*
X73569286Y-78730929D02*
X73230620Y-78730929D01*
X73230620Y-79263119D02*
X73230620Y-78247119D01*
X73714429Y-78247119D01*
X74053096Y-78343881D02*
X74101477Y-78295500D01*
X74198239Y-78247119D01*
X74440143Y-78247119D01*
X74536905Y-78295500D01*
X74585286Y-78343881D01*
X74633667Y-78440643D01*
X74633667Y-78537405D01*
X74585286Y-78682548D01*
X74004715Y-79263119D01*
X74633667Y-79263119D01*
X75504524Y-78585786D02*
X75504524Y-79263119D01*
X75262620Y-78198738D02*
X75020715Y-78924452D01*
X75649667Y-78924452D01*
X76520524Y-79263119D02*
X76036715Y-79263119D01*
X76036715Y-78247119D01*
X77052715Y-78247119D02*
X77149476Y-78247119D01*
X77246238Y-78295500D01*
X77294619Y-78343881D01*
X77343000Y-78440643D01*
X77391381Y-78634167D01*
X77391381Y-78876071D01*
X77343000Y-79069595D01*
X77294619Y-79166357D01*
X77246238Y-79214738D01*
X77149476Y-79263119D01*
X77052715Y-79263119D01*
X76955953Y-79214738D01*
X76907572Y-79166357D01*
X76859191Y-79069595D01*
X76810810Y-78876071D01*
X76810810Y-78634167D01*
X76859191Y-78440643D01*
X76907572Y-78343881D01*
X76955953Y-78295500D01*
X77052715Y-78247119D01*
X78359000Y-79263119D02*
X77778429Y-79263119D01*
X78068715Y-79263119D02*
X78068715Y-78247119D01*
X77971953Y-78392262D01*
X77875191Y-78489024D01*
X77778429Y-78537405D01*
X71295382Y-30325786D02*
X71295382Y-31003119D01*
X71295382Y-30422548D02*
X71343763Y-30374167D01*
X71440525Y-30325786D01*
X71585667Y-30325786D01*
X71682429Y-30374167D01*
X71730810Y-30470929D01*
X71730810Y-31003119D01*
X72795191Y-31003119D02*
X72456525Y-30519310D01*
X72214620Y-31003119D02*
X72214620Y-29987119D01*
X72601667Y-29987119D01*
X72698429Y-30035500D01*
X72746810Y-30083881D01*
X72795191Y-30180643D01*
X72795191Y-30325786D01*
X72746810Y-30422548D01*
X72698429Y-30470929D01*
X72601667Y-30519310D01*
X72214620Y-30519310D01*
X73569286Y-30470929D02*
X73230620Y-30470929D01*
X73230620Y-31003119D02*
X73230620Y-29987119D01*
X73714429Y-29987119D01*
X74053096Y-30083881D02*
X74101477Y-30035500D01*
X74198239Y-29987119D01*
X74440143Y-29987119D01*
X74536905Y-30035500D01*
X74585286Y-30083881D01*
X74633667Y-30180643D01*
X74633667Y-30277405D01*
X74585286Y-30422548D01*
X74004715Y-31003119D01*
X74633667Y-31003119D01*
X75504524Y-30325786D02*
X75504524Y-31003119D01*
X75262620Y-29938738D02*
X75020715Y-30664452D01*
X75649667Y-30664452D01*
X76520524Y-31003119D02*
X76036715Y-31003119D01*
X76036715Y-29987119D01*
X77052715Y-29987119D02*
X77149476Y-29987119D01*
X77246238Y-30035500D01*
X77294619Y-30083881D01*
X77343000Y-30180643D01*
X77391381Y-30374167D01*
X77391381Y-30616071D01*
X77343000Y-30809595D01*
X77294619Y-30906357D01*
X77246238Y-30954738D01*
X77149476Y-31003119D01*
X77052715Y-31003119D01*
X76955953Y-30954738D01*
X76907572Y-30906357D01*
X76859191Y-30809595D01*
X76810810Y-30616071D01*
X76810810Y-30374167D01*
X76859191Y-30180643D01*
X76907572Y-30083881D01*
X76955953Y-30035500D01*
X77052715Y-29987119D01*
X78359000Y-31003119D02*
X77778429Y-31003119D01*
X78068715Y-31003119D02*
X78068715Y-29987119D01*
X77971953Y-30132262D01*
X77875191Y-30229024D01*
X77778429Y-30277405D01*
D11*
X51435000Y-29210000D02*
X51435000Y-44450000D01*
X79375000Y-29210000D02*
X51435000Y-29210000D01*
X79375000Y-44450000D02*
X79375000Y-29210000D01*
X51435000Y-44450000D02*
X79375000Y-44450000D01*
D10*
X60388500Y-50355500D02*
X60388500Y-48958500D01*
X60261500Y-50609500D02*
X60261500Y-48831500D01*
X60134500Y-50990500D02*
X60134500Y-48450500D01*
X60007500Y-48323500D02*
X60007500Y-51117500D01*
X59880500Y-51244500D02*
X59880500Y-48196500D01*
X59753500Y-48069500D02*
X59753500Y-51371500D01*
X59626500Y-51498500D02*
X59626500Y-47942500D01*
X60769500Y-52387500D02*
X56197500Y-52387500D01*
X56197500Y-52387500D02*
X55435500Y-51625500D01*
X55435500Y-51625500D02*
X55435500Y-47815500D01*
X55435500Y-47815500D02*
X56197500Y-47053500D01*
X56197500Y-47053500D02*
X60769500Y-47053500D01*
X60769500Y-47053500D02*
X60769500Y-52387500D01*
X55943500Y-49720500D02*
X56705500Y-49720500D01*
X56324500Y-50101500D02*
X56324500Y-49339500D01*
X60515500Y-49720500D02*
G75*
G03X60515500Y-49720500I-2413000J0D01*
G01*
X29845000Y-47625000D02*
G75*
G03X30480000Y-66040000I9525000J-8890000D01*
G01*
X48260000Y-66040000D02*
G75*
G03X48895000Y-47625000I-8890000J9525000D01*
G01*
X22225000Y-60325000D02*
X26670000Y-60325000D01*
X22225000Y-60325000D02*
X22225000Y-52705000D01*
X22225000Y-52705000D02*
X26670000Y-52705000D01*
X52070000Y-60325000D02*
X52705000Y-60325000D01*
X56515000Y-60325000D02*
X52705000Y-60325000D01*
X56515000Y-60325000D02*
X56515000Y-52705000D01*
X56515000Y-52705000D02*
X52070000Y-52705000D01*
X51435000Y-56515000D02*
G75*
G03X51435000Y-56515000I-12065000J0D01*
G01*
D13*
X66675000Y-67183000D02*
X66675000Y-64897000D01*
X66675000Y-64897000D02*
X65024000Y-64897000D01*
X63246000Y-67183000D02*
X61595000Y-67183000D01*
X61595000Y-67183000D02*
X61595000Y-64897000D01*
X61595000Y-64897000D02*
X63246000Y-64897000D01*
X65024000Y-67183000D02*
X66675000Y-67183000D01*
X56388000Y-61595000D02*
X54102000Y-61595000D01*
X54102000Y-61595000D02*
X54102000Y-63246000D01*
X56388000Y-65024000D02*
X56388000Y-66675000D01*
X56388000Y-66675000D02*
X54102000Y-66675000D01*
X54102000Y-66675000D02*
X54102000Y-65024000D01*
X56388000Y-63246000D02*
X56388000Y-61595000D01*
D14*
X58166000Y-46736000D02*
X68707000Y-46736000D01*
X58166000Y-44704000D02*
X58674000Y-44704000D01*
X68326000Y-44704000D02*
X58674000Y-44704000D01*
X57150000Y-45720000D02*
X58166000Y-45720000D01*
X58166000Y-45720000D02*
X58166000Y-44704000D01*
X68326000Y-44704000D02*
X76454000Y-44704000D01*
X76454000Y-44704000D02*
X76454000Y-46736000D01*
X76454000Y-46736000D02*
X68326000Y-46736000D01*
X58166000Y-46736000D02*
X58166000Y-45720000D01*
X58166000Y-45212000D02*
X58674000Y-44704000D01*
X77470000Y-45720000D02*
X76454000Y-45720000D01*
D10*
X61849000Y-53975000D02*
X66675000Y-53975000D01*
X66675000Y-53975000D02*
X66675000Y-64135000D01*
X66675000Y-64135000D02*
X61849000Y-64135000D01*
X61849000Y-64135000D02*
X61849000Y-53975000D01*
X63627000Y-64135000D02*
X63627000Y-63500000D01*
X63627000Y-63500000D02*
X64897000Y-63500000D01*
X64897000Y-63500000D02*
X64897000Y-64135000D01*
D12*
X78740000Y-52705000D02*
X71120000Y-52705000D01*
X71120000Y-47625000D02*
X78740000Y-47625000D01*
X78740000Y-47625000D02*
X78740000Y-52705000D01*
X71120000Y-52705000D02*
X71120000Y-47625000D01*
D15*
X74295000Y-67310000D02*
X74295000Y-57150000D01*
X74295000Y-57150000D02*
X79375000Y-57150000D01*
X79375000Y-57150000D02*
X79375000Y-67310000D01*
X79375000Y-67310000D02*
X74295000Y-67310000D01*
D10*
X60388500Y-74485500D02*
X60388500Y-73088500D01*
X60261500Y-74739500D02*
X60261500Y-72961500D01*
X60134500Y-75120500D02*
X60134500Y-72580500D01*
X60007500Y-72453500D02*
X60007500Y-75247500D01*
X59880500Y-75374500D02*
X59880500Y-72326500D01*
X59753500Y-72199500D02*
X59753500Y-75501500D01*
X59626500Y-75628500D02*
X59626500Y-72072500D01*
X60769500Y-76517500D02*
X56197500Y-76517500D01*
X56197500Y-76517500D02*
X55435500Y-75755500D01*
X55435500Y-75755500D02*
X55435500Y-71945500D01*
X55435500Y-71945500D02*
X56197500Y-71183500D01*
X56197500Y-71183500D02*
X60769500Y-71183500D01*
X60769500Y-71183500D02*
X60769500Y-76517500D01*
X55943500Y-73850500D02*
X56705500Y-73850500D01*
X56324500Y-74231500D02*
X56324500Y-73469500D01*
X60515500Y-73850500D02*
G75*
G03X60515500Y-73850500I-2413000J0D01*
G01*
X29845000Y-71755000D02*
G75*
G03X30480000Y-90170000I9525000J-8890000D01*
G01*
X48260000Y-90170000D02*
G75*
G03X48895000Y-71755000I-8890000J9525000D01*
G01*
X22225000Y-84455000D02*
X26670000Y-84455000D01*
X22225000Y-84455000D02*
X22225000Y-76835000D01*
X22225000Y-76835000D02*
X26670000Y-76835000D01*
X52070000Y-84455000D02*
X52705000Y-84455000D01*
X56515000Y-84455000D02*
X52705000Y-84455000D01*
X56515000Y-84455000D02*
X56515000Y-76835000D01*
X56515000Y-76835000D02*
X52070000Y-76835000D01*
X51435000Y-80645000D02*
G75*
G03X51435000Y-80645000I-12065000J0D01*
G01*
D13*
X66675000Y-91313000D02*
X66675000Y-89027000D01*
X66675000Y-89027000D02*
X65024000Y-89027000D01*
X63246000Y-91313000D02*
X61595000Y-91313000D01*
X61595000Y-91313000D02*
X61595000Y-89027000D01*
X61595000Y-89027000D02*
X63246000Y-89027000D01*
X65024000Y-91313000D02*
X66675000Y-91313000D01*
X56388000Y-85725000D02*
X54102000Y-85725000D01*
X54102000Y-85725000D02*
X54102000Y-87376000D01*
X56388000Y-89154000D02*
X56388000Y-90805000D01*
X56388000Y-90805000D02*
X54102000Y-90805000D01*
X54102000Y-90805000D02*
X54102000Y-89154000D01*
X56388000Y-87376000D02*
X56388000Y-85725000D01*
D14*
X58166000Y-70866000D02*
X68707000Y-70866000D01*
X58166000Y-68834000D02*
X58674000Y-68834000D01*
X68326000Y-68834000D02*
X58674000Y-68834000D01*
X57150000Y-69850000D02*
X58166000Y-69850000D01*
X58166000Y-69850000D02*
X58166000Y-68834000D01*
X68326000Y-68834000D02*
X76454000Y-68834000D01*
X76454000Y-68834000D02*
X76454000Y-70866000D01*
X76454000Y-70866000D02*
X68326000Y-70866000D01*
X58166000Y-70866000D02*
X58166000Y-69850000D01*
X58166000Y-69342000D02*
X58674000Y-68834000D01*
X77470000Y-69850000D02*
X76454000Y-69850000D01*
D10*
X61849000Y-78105000D02*
X66675000Y-78105000D01*
X66675000Y-78105000D02*
X66675000Y-88265000D01*
X66675000Y-88265000D02*
X61849000Y-88265000D01*
X61849000Y-88265000D02*
X61849000Y-78105000D01*
X63627000Y-88265000D02*
X63627000Y-87630000D01*
X63627000Y-87630000D02*
X64897000Y-87630000D01*
X64897000Y-87630000D02*
X64897000Y-88265000D01*
D12*
X78740000Y-76835000D02*
X71120000Y-76835000D01*
X71120000Y-71755000D02*
X78740000Y-71755000D01*
X78740000Y-71755000D02*
X78740000Y-76835000D01*
X71120000Y-76835000D02*
X71120000Y-71755000D01*
D15*
X74295000Y-91440000D02*
X74295000Y-81280000D01*
X74295000Y-81280000D02*
X79375000Y-81280000D01*
X79375000Y-81280000D02*
X79375000Y-91440000D01*
X79375000Y-91440000D02*
X74295000Y-91440000D01*
X74295000Y-43180000D02*
X74295000Y-33020000D01*
X74295000Y-33020000D02*
X79375000Y-33020000D01*
X79375000Y-33020000D02*
X79375000Y-43180000D01*
X79375000Y-43180000D02*
X74295000Y-43180000D01*
D12*
X78740000Y-28575000D02*
X71120000Y-28575000D01*
X71120000Y-23495000D02*
X78740000Y-23495000D01*
X78740000Y-23495000D02*
X78740000Y-28575000D01*
X71120000Y-28575000D02*
X71120000Y-23495000D01*
D10*
X61849000Y-29845000D02*
X66675000Y-29845000D01*
X66675000Y-29845000D02*
X66675000Y-40005000D01*
X66675000Y-40005000D02*
X61849000Y-40005000D01*
X61849000Y-40005000D02*
X61849000Y-29845000D01*
X63627000Y-40005000D02*
X63627000Y-39370000D01*
X63627000Y-39370000D02*
X64897000Y-39370000D01*
X64897000Y-39370000D02*
X64897000Y-40005000D01*
D14*
X58166000Y-22606000D02*
X68707000Y-22606000D01*
X58166000Y-20574000D02*
X58674000Y-20574000D01*
X68326000Y-20574000D02*
X58674000Y-20574000D01*
X57150000Y-21590000D02*
X58166000Y-21590000D01*
X58166000Y-21590000D02*
X58166000Y-20574000D01*
X68326000Y-20574000D02*
X76454000Y-20574000D01*
X76454000Y-20574000D02*
X76454000Y-22606000D01*
X76454000Y-22606000D02*
X68326000Y-22606000D01*
X58166000Y-22606000D02*
X58166000Y-21590000D01*
X58166000Y-21082000D02*
X58674000Y-20574000D01*
X77470000Y-21590000D02*
X76454000Y-21590000D01*
D13*
X56388000Y-37465000D02*
X54102000Y-37465000D01*
X54102000Y-37465000D02*
X54102000Y-39116000D01*
X56388000Y-40894000D02*
X56388000Y-42545000D01*
X56388000Y-42545000D02*
X54102000Y-42545000D01*
X54102000Y-42545000D02*
X54102000Y-40894000D01*
X56388000Y-39116000D02*
X56388000Y-37465000D01*
X66675000Y-43053000D02*
X66675000Y-40767000D01*
X66675000Y-40767000D02*
X65024000Y-40767000D01*
X63246000Y-43053000D02*
X61595000Y-43053000D01*
X61595000Y-43053000D02*
X61595000Y-40767000D01*
X61595000Y-40767000D02*
X63246000Y-40767000D01*
X65024000Y-43053000D02*
X66675000Y-43053000D01*
D10*
X29845000Y-23495000D02*
G75*
G03X30480000Y-41910000I9525000J-8890000D01*
G01*
X48260000Y-41910000D02*
G75*
G03X48895000Y-23495000I-8890000J9525000D01*
G01*
X22225000Y-36195000D02*
X26670000Y-36195000D01*
X22225000Y-36195000D02*
X22225000Y-28575000D01*
X22225000Y-28575000D02*
X26670000Y-28575000D01*
X52070000Y-36195000D02*
X52705000Y-36195000D01*
X56515000Y-36195000D02*
X52705000Y-36195000D01*
X56515000Y-36195000D02*
X56515000Y-28575000D01*
X56515000Y-28575000D02*
X52070000Y-28575000D01*
X51435000Y-32385000D02*
G75*
G03X51435000Y-32385000I-12065000J0D01*
G01*
X60388500Y-26225500D02*
X60388500Y-24828500D01*
X60261500Y-26479500D02*
X60261500Y-24701500D01*
X60134500Y-26860500D02*
X60134500Y-24320500D01*
X60007500Y-24193500D02*
X60007500Y-26987500D01*
X59880500Y-27114500D02*
X59880500Y-24066500D01*
X59753500Y-23939500D02*
X59753500Y-27241500D01*
X59626500Y-27368500D02*
X59626500Y-23812500D01*
X60769500Y-28257500D02*
X56197500Y-28257500D01*
X56197500Y-28257500D02*
X55435500Y-27495500D01*
X55435500Y-27495500D02*
X55435500Y-23685500D01*
X55435500Y-23685500D02*
X56197500Y-22923500D01*
X56197500Y-22923500D02*
X60769500Y-22923500D01*
X60769500Y-22923500D02*
X60769500Y-28257500D01*
X55943500Y-25590500D02*
X56705500Y-25590500D01*
X56324500Y-25971500D02*
X56324500Y-25209500D01*
X60515500Y-25590500D02*
G75*
G03X60515500Y-25590500I-2413000J0D01*
G01*
D12*
X61679667Y-48305357D02*
X61631286Y-48353738D01*
X61486143Y-48402119D01*
X61389381Y-48402119D01*
X61244239Y-48353738D01*
X61147477Y-48256976D01*
X61099096Y-48160214D01*
X61050715Y-47966690D01*
X61050715Y-47821548D01*
X61099096Y-47628024D01*
X61147477Y-47531262D01*
X61244239Y-47434500D01*
X61389381Y-47386119D01*
X61486143Y-47386119D01*
X61631286Y-47434500D01*
X61679667Y-47482881D01*
X62647286Y-48402119D02*
X62066715Y-48402119D01*
X62357001Y-48402119D02*
X62357001Y-47386119D01*
X62260239Y-47531262D01*
X62163477Y-47628024D01*
X62066715Y-47676405D01*
X23939500Y-50636714D02*
X23891119Y-50733476D01*
X23891119Y-50878619D01*
X23939500Y-51023761D01*
X24036262Y-51120523D01*
X24133024Y-51168904D01*
X24326548Y-51217285D01*
X24471690Y-51217285D01*
X24665214Y-51168904D01*
X24761976Y-51120523D01*
X24858738Y-51023761D01*
X24907119Y-50878619D01*
X24907119Y-50781857D01*
X24858738Y-50636714D01*
X24810357Y-50588333D01*
X24471690Y-50588333D01*
X24471690Y-50781857D01*
X24907119Y-49620714D02*
X24907119Y-50201285D01*
X24907119Y-49910999D02*
X23891119Y-49910999D01*
X24036262Y-50007761D01*
X24133024Y-50104523D01*
X24181405Y-50201285D01*
X59901667Y-65069357D02*
X59853286Y-65117738D01*
X59708143Y-65166119D01*
X59611381Y-65166119D01*
X59466239Y-65117738D01*
X59369477Y-65020976D01*
X59321096Y-64924214D01*
X59272715Y-64730690D01*
X59272715Y-64585548D01*
X59321096Y-64392024D01*
X59369477Y-64295262D01*
X59466239Y-64198500D01*
X59611381Y-64150119D01*
X59708143Y-64150119D01*
X59853286Y-64198500D01*
X59901667Y-64246881D01*
X60288715Y-64246881D02*
X60337096Y-64198500D01*
X60433858Y-64150119D01*
X60675762Y-64150119D01*
X60772524Y-64198500D01*
X60820905Y-64246881D01*
X60869286Y-64343643D01*
X60869286Y-64440405D01*
X60820905Y-64585548D01*
X60240334Y-65166119D01*
X60869286Y-65166119D01*
X53101119Y-65955333D02*
X52617310Y-66293999D01*
X53101119Y-66535904D02*
X52085119Y-66535904D01*
X52085119Y-66148857D01*
X52133500Y-66052095D01*
X52181881Y-66003714D01*
X52278643Y-65955333D01*
X52423786Y-65955333D01*
X52520548Y-66003714D01*
X52568929Y-66052095D01*
X52617310Y-66148857D01*
X52617310Y-66535904D01*
X53101119Y-64987714D02*
X53101119Y-65568285D01*
X53101119Y-65277999D02*
X52085119Y-65277999D01*
X52230262Y-65374761D01*
X52327024Y-65471523D01*
X52375405Y-65568285D01*
X65964405Y-48290238D02*
X66109548Y-48338619D01*
X66351452Y-48338619D01*
X66448214Y-48290238D01*
X66496595Y-48241857D01*
X66544976Y-48145095D01*
X66544976Y-48048333D01*
X66496595Y-47951571D01*
X66448214Y-47903190D01*
X66351452Y-47854810D01*
X66157929Y-47806429D01*
X66061167Y-47758048D01*
X66012786Y-47709667D01*
X65964405Y-47612905D01*
X65964405Y-47516143D01*
X66012786Y-47419381D01*
X66061167Y-47371000D01*
X66157929Y-47322619D01*
X66399833Y-47322619D01*
X66544976Y-47371000D01*
X67512595Y-48338619D02*
X66932024Y-48338619D01*
X67222310Y-48338619D02*
X67222310Y-47322619D01*
X67125548Y-47467762D01*
X67028786Y-47564524D01*
X66932024Y-47612905D01*
X59641619Y-60820904D02*
X58625619Y-60820904D01*
X58625619Y-60578999D01*
X58674000Y-60433857D01*
X58770762Y-60337095D01*
X58867524Y-60288714D01*
X59061048Y-60240333D01*
X59206190Y-60240333D01*
X59399714Y-60288714D01*
X59496476Y-60337095D01*
X59593238Y-60433857D01*
X59641619Y-60578999D01*
X59641619Y-60820904D01*
X59641619Y-59272714D02*
X59641619Y-59853285D01*
X59641619Y-59562999D02*
X58625619Y-59562999D01*
X58770762Y-59659761D01*
X58867524Y-59756523D01*
X58915905Y-59853285D01*
X69100096Y-48592619D02*
X69100096Y-47576619D01*
X69487143Y-47576619D01*
X69583905Y-47625000D01*
X69632286Y-47673381D01*
X69680667Y-47770143D01*
X69680667Y-47915286D01*
X69632286Y-48012048D01*
X69583905Y-48060429D01*
X69487143Y-48108810D01*
X69100096Y-48108810D01*
X70067715Y-47673381D02*
X70116096Y-47625000D01*
X70212858Y-47576619D01*
X70454762Y-47576619D01*
X70551524Y-47625000D01*
X70599905Y-47673381D01*
X70648286Y-47770143D01*
X70648286Y-47866905D01*
X70599905Y-48012048D01*
X70019334Y-48592619D01*
X70648286Y-48592619D01*
X73421119Y-65392904D02*
X72405119Y-65392904D01*
X72405119Y-65005857D01*
X72453500Y-64909095D01*
X72501881Y-64860714D01*
X72598643Y-64812333D01*
X72743786Y-64812333D01*
X72840548Y-64860714D01*
X72888929Y-64909095D01*
X72937310Y-65005857D01*
X72937310Y-65392904D01*
X73421119Y-63844714D02*
X73421119Y-64425285D01*
X73421119Y-64134999D02*
X72405119Y-64134999D01*
X72550262Y-64231761D01*
X72647024Y-64328523D01*
X72695405Y-64425285D01*
X61679667Y-72435357D02*
X61631286Y-72483738D01*
X61486143Y-72532119D01*
X61389381Y-72532119D01*
X61244239Y-72483738D01*
X61147477Y-72386976D01*
X61099096Y-72290214D01*
X61050715Y-72096690D01*
X61050715Y-71951548D01*
X61099096Y-71758024D01*
X61147477Y-71661262D01*
X61244239Y-71564500D01*
X61389381Y-71516119D01*
X61486143Y-71516119D01*
X61631286Y-71564500D01*
X61679667Y-71612881D01*
X62647286Y-72532119D02*
X62066715Y-72532119D01*
X62357001Y-72532119D02*
X62357001Y-71516119D01*
X62260239Y-71661262D01*
X62163477Y-71758024D01*
X62066715Y-71806405D01*
X23939500Y-74766714D02*
X23891119Y-74863476D01*
X23891119Y-75008619D01*
X23939500Y-75153761D01*
X24036262Y-75250523D01*
X24133024Y-75298904D01*
X24326548Y-75347285D01*
X24471690Y-75347285D01*
X24665214Y-75298904D01*
X24761976Y-75250523D01*
X24858738Y-75153761D01*
X24907119Y-75008619D01*
X24907119Y-74911857D01*
X24858738Y-74766714D01*
X24810357Y-74718333D01*
X24471690Y-74718333D01*
X24471690Y-74911857D01*
X24907119Y-73750714D02*
X24907119Y-74331285D01*
X24907119Y-74040999D02*
X23891119Y-74040999D01*
X24036262Y-74137761D01*
X24133024Y-74234523D01*
X24181405Y-74331285D01*
X59901667Y-89199357D02*
X59853286Y-89247738D01*
X59708143Y-89296119D01*
X59611381Y-89296119D01*
X59466239Y-89247738D01*
X59369477Y-89150976D01*
X59321096Y-89054214D01*
X59272715Y-88860690D01*
X59272715Y-88715548D01*
X59321096Y-88522024D01*
X59369477Y-88425262D01*
X59466239Y-88328500D01*
X59611381Y-88280119D01*
X59708143Y-88280119D01*
X59853286Y-88328500D01*
X59901667Y-88376881D01*
X60288715Y-88376881D02*
X60337096Y-88328500D01*
X60433858Y-88280119D01*
X60675762Y-88280119D01*
X60772524Y-88328500D01*
X60820905Y-88376881D01*
X60869286Y-88473643D01*
X60869286Y-88570405D01*
X60820905Y-88715548D01*
X60240334Y-89296119D01*
X60869286Y-89296119D01*
X53101119Y-90085333D02*
X52617310Y-90423999D01*
X53101119Y-90665904D02*
X52085119Y-90665904D01*
X52085119Y-90278857D01*
X52133500Y-90182095D01*
X52181881Y-90133714D01*
X52278643Y-90085333D01*
X52423786Y-90085333D01*
X52520548Y-90133714D01*
X52568929Y-90182095D01*
X52617310Y-90278857D01*
X52617310Y-90665904D01*
X53101119Y-89117714D02*
X53101119Y-89698285D01*
X53101119Y-89407999D02*
X52085119Y-89407999D01*
X52230262Y-89504761D01*
X52327024Y-89601523D01*
X52375405Y-89698285D01*
X65964405Y-72420238D02*
X66109548Y-72468619D01*
X66351452Y-72468619D01*
X66448214Y-72420238D01*
X66496595Y-72371857D01*
X66544976Y-72275095D01*
X66544976Y-72178333D01*
X66496595Y-72081571D01*
X66448214Y-72033190D01*
X66351452Y-71984810D01*
X66157929Y-71936429D01*
X66061167Y-71888048D01*
X66012786Y-71839667D01*
X65964405Y-71742905D01*
X65964405Y-71646143D01*
X66012786Y-71549381D01*
X66061167Y-71501000D01*
X66157929Y-71452619D01*
X66399833Y-71452619D01*
X66544976Y-71501000D01*
X67512595Y-72468619D02*
X66932024Y-72468619D01*
X67222310Y-72468619D02*
X67222310Y-71452619D01*
X67125548Y-71597762D01*
X67028786Y-71694524D01*
X66932024Y-71742905D01*
X59641619Y-84950904D02*
X58625619Y-84950904D01*
X58625619Y-84708999D01*
X58674000Y-84563857D01*
X58770762Y-84467095D01*
X58867524Y-84418714D01*
X59061048Y-84370333D01*
X59206190Y-84370333D01*
X59399714Y-84418714D01*
X59496476Y-84467095D01*
X59593238Y-84563857D01*
X59641619Y-84708999D01*
X59641619Y-84950904D01*
X59641619Y-83402714D02*
X59641619Y-83983285D01*
X59641619Y-83692999D02*
X58625619Y-83692999D01*
X58770762Y-83789761D01*
X58867524Y-83886523D01*
X58915905Y-83983285D01*
X69100096Y-72722619D02*
X69100096Y-71706619D01*
X69487143Y-71706619D01*
X69583905Y-71755000D01*
X69632286Y-71803381D01*
X69680667Y-71900143D01*
X69680667Y-72045286D01*
X69632286Y-72142048D01*
X69583905Y-72190429D01*
X69487143Y-72238810D01*
X69100096Y-72238810D01*
X70067715Y-71803381D02*
X70116096Y-71755000D01*
X70212858Y-71706619D01*
X70454762Y-71706619D01*
X70551524Y-71755000D01*
X70599905Y-71803381D01*
X70648286Y-71900143D01*
X70648286Y-71996905D01*
X70599905Y-72142048D01*
X70019334Y-72722619D01*
X70648286Y-72722619D01*
X73421119Y-89522904D02*
X72405119Y-89522904D01*
X72405119Y-89135857D01*
X72453500Y-89039095D01*
X72501881Y-88990714D01*
X72598643Y-88942333D01*
X72743786Y-88942333D01*
X72840548Y-88990714D01*
X72888929Y-89039095D01*
X72937310Y-89135857D01*
X72937310Y-89522904D01*
X73421119Y-87974714D02*
X73421119Y-88555285D01*
X73421119Y-88264999D02*
X72405119Y-88264999D01*
X72550262Y-88361761D01*
X72647024Y-88458523D01*
X72695405Y-88555285D01*
X73421119Y-41262904D02*
X72405119Y-41262904D01*
X72405119Y-40875857D01*
X72453500Y-40779095D01*
X72501881Y-40730714D01*
X72598643Y-40682333D01*
X72743786Y-40682333D01*
X72840548Y-40730714D01*
X72888929Y-40779095D01*
X72937310Y-40875857D01*
X72937310Y-41262904D01*
X73421119Y-39714714D02*
X73421119Y-40295285D01*
X73421119Y-40004999D02*
X72405119Y-40004999D01*
X72550262Y-40101761D01*
X72647024Y-40198523D01*
X72695405Y-40295285D01*
X69100096Y-24462619D02*
X69100096Y-23446619D01*
X69487143Y-23446619D01*
X69583905Y-23495000D01*
X69632286Y-23543381D01*
X69680667Y-23640143D01*
X69680667Y-23785286D01*
X69632286Y-23882048D01*
X69583905Y-23930429D01*
X69487143Y-23978810D01*
X69100096Y-23978810D01*
X70067715Y-23543381D02*
X70116096Y-23495000D01*
X70212858Y-23446619D01*
X70454762Y-23446619D01*
X70551524Y-23495000D01*
X70599905Y-23543381D01*
X70648286Y-23640143D01*
X70648286Y-23736905D01*
X70599905Y-23882048D01*
X70019334Y-24462619D01*
X70648286Y-24462619D01*
X59641619Y-36690904D02*
X58625619Y-36690904D01*
X58625619Y-36448999D01*
X58674000Y-36303857D01*
X58770762Y-36207095D01*
X58867524Y-36158714D01*
X59061048Y-36110333D01*
X59206190Y-36110333D01*
X59399714Y-36158714D01*
X59496476Y-36207095D01*
X59593238Y-36303857D01*
X59641619Y-36448999D01*
X59641619Y-36690904D01*
X59641619Y-35142714D02*
X59641619Y-35723285D01*
X59641619Y-35432999D02*
X58625619Y-35432999D01*
X58770762Y-35529761D01*
X58867524Y-35626523D01*
X58915905Y-35723285D01*
X65964405Y-24160238D02*
X66109548Y-24208619D01*
X66351452Y-24208619D01*
X66448214Y-24160238D01*
X66496595Y-24111857D01*
X66544976Y-24015095D01*
X66544976Y-23918333D01*
X66496595Y-23821571D01*
X66448214Y-23773190D01*
X66351452Y-23724810D01*
X66157929Y-23676429D01*
X66061167Y-23628048D01*
X66012786Y-23579667D01*
X65964405Y-23482905D01*
X65964405Y-23386143D01*
X66012786Y-23289381D01*
X66061167Y-23241000D01*
X66157929Y-23192619D01*
X66399833Y-23192619D01*
X66544976Y-23241000D01*
X67512595Y-24208619D02*
X66932024Y-24208619D01*
X67222310Y-24208619D02*
X67222310Y-23192619D01*
X67125548Y-23337762D01*
X67028786Y-23434524D01*
X66932024Y-23482905D01*
X53101119Y-41825333D02*
X52617310Y-42163999D01*
X53101119Y-42405904D02*
X52085119Y-42405904D01*
X52085119Y-42018857D01*
X52133500Y-41922095D01*
X52181881Y-41873714D01*
X52278643Y-41825333D01*
X52423786Y-41825333D01*
X52520548Y-41873714D01*
X52568929Y-41922095D01*
X52617310Y-42018857D01*
X52617310Y-42405904D01*
X53101119Y-40857714D02*
X53101119Y-41438285D01*
X53101119Y-41147999D02*
X52085119Y-41147999D01*
X52230262Y-41244761D01*
X52327024Y-41341523D01*
X52375405Y-41438285D01*
X59901667Y-40939357D02*
X59853286Y-40987738D01*
X59708143Y-41036119D01*
X59611381Y-41036119D01*
X59466239Y-40987738D01*
X59369477Y-40890976D01*
X59321096Y-40794214D01*
X59272715Y-40600690D01*
X59272715Y-40455548D01*
X59321096Y-40262024D01*
X59369477Y-40165262D01*
X59466239Y-40068500D01*
X59611381Y-40020119D01*
X59708143Y-40020119D01*
X59853286Y-40068500D01*
X59901667Y-40116881D01*
X60288715Y-40116881D02*
X60337096Y-40068500D01*
X60433858Y-40020119D01*
X60675762Y-40020119D01*
X60772524Y-40068500D01*
X60820905Y-40116881D01*
X60869286Y-40213643D01*
X60869286Y-40310405D01*
X60820905Y-40455548D01*
X60240334Y-41036119D01*
X60869286Y-41036119D01*
X23939500Y-26506714D02*
X23891119Y-26603476D01*
X23891119Y-26748619D01*
X23939500Y-26893761D01*
X24036262Y-26990523D01*
X24133024Y-27038904D01*
X24326548Y-27087285D01*
X24471690Y-27087285D01*
X24665214Y-27038904D01*
X24761976Y-26990523D01*
X24858738Y-26893761D01*
X24907119Y-26748619D01*
X24907119Y-26651857D01*
X24858738Y-26506714D01*
X24810357Y-26458333D01*
X24471690Y-26458333D01*
X24471690Y-26651857D01*
X24907119Y-25490714D02*
X24907119Y-26071285D01*
X24907119Y-25780999D02*
X23891119Y-25780999D01*
X24036262Y-25877761D01*
X24133024Y-25974523D01*
X24181405Y-26071285D01*
X61679667Y-24175357D02*
X61631286Y-24223738D01*
X61486143Y-24272119D01*
X61389381Y-24272119D01*
X61244239Y-24223738D01*
X61147477Y-24126976D01*
X61099096Y-24030214D01*
X61050715Y-23836690D01*
X61050715Y-23691548D01*
X61099096Y-23498024D01*
X61147477Y-23401262D01*
X61244239Y-23304500D01*
X61389381Y-23256119D01*
X61486143Y-23256119D01*
X61631286Y-23304500D01*
X61679667Y-23352881D01*
X62647286Y-24272119D02*
X62066715Y-24272119D01*
X62357001Y-24272119D02*
X62357001Y-23256119D01*
X62260239Y-23401262D01*
X62163477Y-23498024D01*
X62066715Y-23546405D01*
M02*
