G04 #@! TF.FileFunction,Soldermask,Bot*
%FSLAX46Y46*%
G04 Gerber Fmt 4.6, Leading zero omitted, Abs format (unit mm)*
G04 Created by KiCad (PCBNEW 4.0.3+e1-6302~38~ubuntu16.04.1-stable) date Mon Aug 15 18:15:02 2016*
%MOMM*%
%LPD*%
G01*
G04 APERTURE LIST*
%ADD10C,0.150000*%
%ADD11C,1.905000*%
%ADD12C,1.524000*%
%ADD13R,1.524000X1.524000*%
G04 APERTURE END LIST*
D10*
D11*
X55245000Y-57785000D03*
X23495000Y-56515000D03*
X55245000Y-55245000D03*
D12*
X57150000Y-45720000D03*
X77470000Y-45720000D03*
D13*
X72390000Y-51435000D03*
D12*
X72390000Y-48895000D03*
X74930000Y-51435000D03*
X74930000Y-48895000D03*
X77470000Y-51435000D03*
X77470000Y-48895000D03*
D13*
X78105000Y-66040000D03*
D12*
X75565000Y-66040000D03*
X78105000Y-63500000D03*
X75565000Y-63500000D03*
X78105000Y-60960000D03*
X75565000Y-60960000D03*
X78105000Y-58420000D03*
X75565000Y-58420000D03*
D11*
X55245000Y-81915000D03*
X23495000Y-80645000D03*
X55245000Y-79375000D03*
D12*
X57150000Y-69850000D03*
X77470000Y-69850000D03*
D13*
X72390000Y-75565000D03*
D12*
X72390000Y-73025000D03*
X74930000Y-75565000D03*
X74930000Y-73025000D03*
X77470000Y-75565000D03*
X77470000Y-73025000D03*
D13*
X78105000Y-90170000D03*
D12*
X75565000Y-90170000D03*
X78105000Y-87630000D03*
X75565000Y-87630000D03*
X78105000Y-85090000D03*
X75565000Y-85090000D03*
X78105000Y-82550000D03*
X75565000Y-82550000D03*
D13*
X78105000Y-41910000D03*
D12*
X75565000Y-41910000D03*
X78105000Y-39370000D03*
X75565000Y-39370000D03*
X78105000Y-36830000D03*
X75565000Y-36830000D03*
X78105000Y-34290000D03*
X75565000Y-34290000D03*
D13*
X72390000Y-27305000D03*
D12*
X72390000Y-24765000D03*
X74930000Y-27305000D03*
X74930000Y-24765000D03*
X77470000Y-27305000D03*
X77470000Y-24765000D03*
X57150000Y-21590000D03*
X77470000Y-21590000D03*
D11*
X55245000Y-33655000D03*
X23495000Y-32385000D03*
X55245000Y-31115000D03*
M02*
