M48
;DRILL file {KiCad 4.0.3+e1-6302~38~ubuntu16.04.1-stable} date Mon Aug 15 18:16:49 2016
;FORMAT={-:-/ absolute / metric / decimal}
FMAT,2
METRIC,TZ
T1C0.635
T2C0.813
T3C1.016
T4C1.100
%
G90
G05
M71
T1
X53.086Y-39.497
X53.086Y-63.627
X53.086Y-87.757
X58.166Y-32.131
X58.166Y-56.261
X58.166Y-80.391
X59.69Y-29.21
X59.69Y-53.34
X59.69Y-77.47
X62.23Y-27.749
X62.23Y-51.88
X62.23Y-76.01
X63.881Y-26.035
X63.881Y-50.165
X63.881Y-74.295
X65.405Y-33.02
X65.405Y-38.1
X65.405Y-57.15
X65.405Y-62.23
X65.405Y-81.28
X65.405Y-86.36
X70.612Y-32.194
X70.612Y-56.325
X70.612Y-80.454
X70.739Y-36.258
X70.739Y-60.389
X70.739Y-84.519
T2
X57.15Y-21.59
X57.15Y-45.72
X57.15Y-69.85
X77.47Y-21.59
X77.47Y-45.72
X77.47Y-69.85
T3
X72.39Y-24.765
X72.39Y-27.305
X72.39Y-48.895
X72.39Y-51.435
X72.39Y-73.025
X72.39Y-75.565
X74.93Y-24.765
X74.93Y-27.305
X74.93Y-48.895
X74.93Y-51.435
X74.93Y-73.025
X74.93Y-75.565
X75.565Y-34.29
X75.565Y-36.83
X75.565Y-39.37
X75.565Y-41.91
X75.565Y-58.42
X75.565Y-60.96
X75.565Y-63.5
X75.565Y-66.04
X75.565Y-82.55
X75.565Y-85.09
X75.565Y-87.63
X75.565Y-90.17
X77.47Y-24.765
X77.47Y-27.305
X77.47Y-48.895
X77.47Y-51.435
X77.47Y-73.025
X77.47Y-75.565
X78.105Y-34.29
X78.105Y-36.83
X78.105Y-39.37
X78.105Y-41.91
X78.105Y-58.42
X78.105Y-60.96
X78.105Y-63.5
X78.105Y-66.04
X78.105Y-82.55
X78.105Y-85.09
X78.105Y-87.63
X78.105Y-90.17
T4
X23.495Y-32.385
X23.495Y-56.515
X23.495Y-80.645
X55.245Y-31.115
X55.245Y-33.655
X55.245Y-55.245
X55.245Y-57.785
X55.245Y-79.375
X55.245Y-81.915
T0
M30
